<mxfile host="app.diagrams.net" modified="2024-05-20T08:57:31.268Z" agent="Mozilla/5.0 (Windows NT 10.0; Win64; x64; rv:126.0) Gecko/20100101 Firefox/126.0" etag="5sVsC7r16RJqeOk9-Aed" version="24.4.0" type="github">
  <diagram name="Page-1" id="QGJd5AFQAgljNHpYmdYA">
    <mxGraphModel dx="794" dy="414" grid="1" gridSize="10" guides="1" tooltips="1" connect="1" arrows="1" fold="1" page="1" pageScale="1" pageWidth="850" pageHeight="1100" math="1" shadow="0">
      <root>
        <mxCell id="0" />
        <mxCell id="1" parent="0" />
        <mxCell id="gHcnHML56qrDtgY2Ua43-28" value="Analog&#xa;Discovery 2&#xa;(Wavegen)" style="pointerEvents=1;verticalLabelPosition=middle;shadow=0;dashed=0;align=left;verticalAlign=middle;shape=mxgraph.electrical.signal_sources.source;aspect=fixed;points=[[0.5,0,0],[1,0.5,0],[0.5,1,0],[0,0.5,0]];elSignalType=ac;labelPosition=right;" vertex="1" parent="1">
          <mxGeometry x="130" y="547.5" width="60" height="60" as="geometry" />
        </mxCell>
        <mxCell id="gHcnHML56qrDtgY2Ua43-29" value="DUT" style="rounded=0;whiteSpace=wrap;" vertex="1" parent="1">
          <mxGeometry x="350" y="510" width="120" height="60" as="geometry" />
        </mxCell>
        <mxCell id="gHcnHML56qrDtgY2Ua43-30" value="" style="pointerEvents=1;verticalLabelPosition=bottom;shadow=0;dashed=0;align=center;verticalAlign=top;shape=mxgraph.electrical.signal_sources.signal_ground;" vertex="1" parent="1">
          <mxGeometry x="393" y="607.5" width="32.5" height="20" as="geometry" />
        </mxCell>
        <mxCell id="gHcnHML56qrDtgY2Ua43-31" value="" style="endArrow=none;rounded=0;exitX=0.5;exitY=0;exitDx=0;exitDy=0;exitPerimeter=0;entryX=0.5;entryY=1;entryDx=0;entryDy=0;" edge="1" parent="1" source="gHcnHML56qrDtgY2Ua43-30" target="gHcnHML56qrDtgY2Ua43-29">
          <mxGeometry width="50" height="50" relative="1" as="geometry">
            <mxPoint x="510" y="660" as="sourcePoint" />
            <mxPoint x="560" y="610" as="targetPoint" />
          </mxGeometry>
        </mxCell>
        <mxCell id="gHcnHML56qrDtgY2Ua43-32" value="" style="verticalLabelPosition=middle;shadow=0;dashed=0;align=left;fillColor=strokeColor;verticalAlign=middle;strokeWidth=1;shape=mxgraph.electrical.miscellaneous.monocell_battery;rotation=0;labelPosition=right;textDirection=ltr;" vertex="1" parent="1">
          <mxGeometry x="222.5" y="430" width="100" height="60" as="geometry" />
        </mxCell>
        <mxCell id="gHcnHML56qrDtgY2Ua43-33" value="Hameg&#xa;HM7042" style="text;align=center;verticalAlign=middle;rounded=0;" vertex="1" parent="1">
          <mxGeometry x="176.25" y="430" width="60" height="30" as="geometry" />
        </mxCell>
        <mxCell id="gHcnHML56qrDtgY2Ua43-34" value="" style="verticalLabelPosition=middle;shadow=0;dashed=0;align=left;fillColor=strokeColor;verticalAlign=middle;strokeWidth=1;shape=mxgraph.electrical.miscellaneous.monocell_battery;rotation=0;labelPosition=right;textDirection=ltr;" vertex="1" parent="1">
          <mxGeometry x="90" y="430" width="100" height="60" as="geometry" />
        </mxCell>
        <mxCell id="gHcnHML56qrDtgY2Ua43-35" value="" style="endArrow=none;html=1;rounded=0;entryX=0;entryY=0.5;entryDx=0;entryDy=0;entryPerimeter=0;exitX=1;exitY=0.5;exitDx=0;exitDy=0;exitPerimeter=0;" edge="1" parent="1" source="gHcnHML56qrDtgY2Ua43-34" target="gHcnHML56qrDtgY2Ua43-32">
          <mxGeometry width="50" height="50" relative="1" as="geometry">
            <mxPoint x="160" y="520" as="sourcePoint" />
            <mxPoint x="210" y="470" as="targetPoint" />
          </mxGeometry>
        </mxCell>
        <mxCell id="gHcnHML56qrDtgY2Ua43-36" value="" style="pointerEvents=1;verticalLabelPosition=bottom;shadow=0;dashed=0;align=center;verticalAlign=top;shape=mxgraph.electrical.signal_sources.signal_ground;" vertex="1" parent="1">
          <mxGeometry x="190" y="500" width="32.5" height="20" as="geometry" />
        </mxCell>
        <mxCell id="gHcnHML56qrDtgY2Ua43-37" value="" style="endArrow=none;html=1;rounded=0;entryX=0.5;entryY=0;entryDx=0;entryDy=0;entryPerimeter=0;" edge="1" parent="1" target="gHcnHML56qrDtgY2Ua43-36">
          <mxGeometry width="50" height="50" relative="1" as="geometry">
            <mxPoint x="206" y="460" as="sourcePoint" />
            <mxPoint x="270" y="480" as="targetPoint" />
          </mxGeometry>
        </mxCell>
        <mxCell id="gHcnHML56qrDtgY2Ua43-38" value="" style="endArrow=none;html=1;rounded=0;exitX=1;exitY=0.5;exitDx=0;exitDy=0;exitPerimeter=0;entryX=0.25;entryY=0;entryDx=0;entryDy=0;" edge="1" parent="1" source="gHcnHML56qrDtgY2Ua43-32" target="gHcnHML56qrDtgY2Ua43-29">
          <mxGeometry width="50" height="50" relative="1" as="geometry">
            <mxPoint x="220" y="540" as="sourcePoint" />
            <mxPoint x="450" y="460" as="targetPoint" />
            <Array as="points">
              <mxPoint x="380" y="460" />
            </Array>
          </mxGeometry>
        </mxCell>
        <mxCell id="gHcnHML56qrDtgY2Ua43-39" value="" style="endArrow=none;html=1;rounded=0;entryX=0;entryY=0.5;entryDx=0;entryDy=0;entryPerimeter=0;exitX=0.75;exitY=0;exitDx=0;exitDy=0;" edge="1" parent="1" source="gHcnHML56qrDtgY2Ua43-29" target="gHcnHML56qrDtgY2Ua43-34">
          <mxGeometry width="50" height="50" relative="1" as="geometry">
            <mxPoint x="220" y="540" as="sourcePoint" />
            <mxPoint x="270" y="490" as="targetPoint" />
            <Array as="points">
              <mxPoint x="440" y="410" />
              <mxPoint x="90" y="410" />
            </Array>
          </mxGeometry>
        </mxCell>
        <mxCell id="gHcnHML56qrDtgY2Ua43-40" value="Vcc+" style="text;html=1;align=center;verticalAlign=middle;whiteSpace=wrap;rounded=0;" vertex="1" parent="1">
          <mxGeometry x="310" y="440" width="30" height="20" as="geometry" />
        </mxCell>
        <mxCell id="gHcnHML56qrDtgY2Ua43-41" value="Vcc-" style="text;html=1;align=center;verticalAlign=middle;whiteSpace=wrap;rounded=0;" vertex="1" parent="1">
          <mxGeometry x="310" y="390" width="30" height="20" as="geometry" />
        </mxCell>
        <mxCell id="gHcnHML56qrDtgY2Ua43-43" value="Analog&lt;div&gt;Discovery 2&lt;br&gt;(Oscilloscope)&lt;/div&gt;" style="perimeter=ellipsePerimeter;verticalLabelPosition=middle;shadow=0;dashed=0;align=left;html=1;verticalAlign=middle;shape=mxgraph.electrical.instruments.oscilloscope;labelPosition=right;" vertex="1" parent="1">
          <mxGeometry x="597.25" y="508.75" width="66.25" height="62.5" as="geometry" />
        </mxCell>
        <mxCell id="gHcnHML56qrDtgY2Ua43-44" value="&lt;br&gt;&lt;div&gt;&lt;br/&gt;&lt;/div&gt;" style="pointerEvents=1;verticalLabelPosition=middle;shadow=0;dashed=0;align=left;html=1;verticalAlign=middle;shape=mxgraph.electrical.resistors.resistor_1;direction=south;labelPosition=right;" vertex="1" parent="1">
          <mxGeometry x="508.75" y="550" width="10" height="57.5" as="geometry" />
        </mxCell>
        <mxCell id="gHcnHML56qrDtgY2Ua43-45" value="" style="pointerEvents=1;verticalLabelPosition=bottom;shadow=0;dashed=0;align=center;verticalAlign=top;shape=mxgraph.electrical.signal_sources.signal_ground;" vertex="1" parent="1">
          <mxGeometry x="143.75" y="610" width="32.5" height="20" as="geometry" />
        </mxCell>
        <mxCell id="gHcnHML56qrDtgY2Ua43-46" value="" style="pointerEvents=1;verticalLabelPosition=bottom;shadow=0;dashed=0;align=center;verticalAlign=top;shape=mxgraph.electrical.signal_sources.signal_ground;" vertex="1" parent="1">
          <mxGeometry x="497.5" y="607.5" width="32.5" height="20" as="geometry" />
        </mxCell>
        <mxCell id="gHcnHML56qrDtgY2Ua43-47" value="" style="endArrow=none;html=1;rounded=0;entryX=0;entryY=0.5;entryDx=0;entryDy=0;entryPerimeter=0;exitX=1;exitY=0.5;exitDx=0;exitDy=0;" edge="1" parent="1" source="gHcnHML56qrDtgY2Ua43-29" target="gHcnHML56qrDtgY2Ua43-44">
          <mxGeometry width="50" height="50" relative="1" as="geometry">
            <mxPoint x="430" y="580" as="sourcePoint" />
            <mxPoint x="480" y="530" as="targetPoint" />
            <Array as="points">
              <mxPoint x="514" y="540" />
            </Array>
          </mxGeometry>
        </mxCell>
        <mxCell id="gHcnHML56qrDtgY2Ua43-48" value="" style="endArrow=none;html=1;rounded=0;entryX=0;entryY=0.5;entryDx=0;entryDy=0;entryPerimeter=0;" edge="1" parent="1" target="gHcnHML56qrDtgY2Ua43-43">
          <mxGeometry width="50" height="50" relative="1" as="geometry">
            <mxPoint x="510" y="540" as="sourcePoint" />
            <mxPoint x="480" y="530" as="targetPoint" />
          </mxGeometry>
        </mxCell>
        <mxCell id="gHcnHML56qrDtgY2Ua43-49" value="" style="pointerEvents=1;verticalLabelPosition=bottom;shadow=0;dashed=0;align=center;verticalAlign=top;shape=mxgraph.electrical.signal_sources.signal_ground;" vertex="1" parent="1">
          <mxGeometry x="614.13" y="607.5" width="32.5" height="20" as="geometry" />
        </mxCell>
        <mxCell id="gHcnHML56qrDtgY2Ua43-50" value="" style="endArrow=none;html=1;rounded=0;entryX=0.5;entryY=1;entryDx=0;entryDy=0;entryPerimeter=0;exitX=0.5;exitY=0;exitDx=0;exitDy=0;exitPerimeter=0;" edge="1" parent="1" source="gHcnHML56qrDtgY2Ua43-49" target="gHcnHML56qrDtgY2Ua43-43">
          <mxGeometry width="50" height="50" relative="1" as="geometry">
            <mxPoint x="430" y="580" as="sourcePoint" />
            <mxPoint x="480" y="530" as="targetPoint" />
          </mxGeometry>
        </mxCell>
        <mxCell id="gHcnHML56qrDtgY2Ua43-51" value="IN" style="text;html=1;align=center;verticalAlign=middle;whiteSpace=wrap;rounded=0;" vertex="1" parent="1">
          <mxGeometry x="322.5" y="520" width="26" height="17.5" as="geometry" />
        </mxCell>
        <mxCell id="gHcnHML56qrDtgY2Ua43-52" value="OUT" style="text;html=1;align=center;verticalAlign=middle;whiteSpace=wrap;rounded=0;" vertex="1" parent="1">
          <mxGeometry x="480" y="520" width="26" height="17.5" as="geometry" />
        </mxCell>
        <mxCell id="gHcnHML56qrDtgY2Ua43-53" value="&lt;div&gt;Channel&lt;/div&gt;&lt;div&gt;1&lt;/div&gt;" style="text;html=1;align=center;verticalAlign=middle;whiteSpace=wrap;rounded=0;" vertex="1" parent="1">
          <mxGeometry x="531.5" y="510" width="56" height="27.5" as="geometry" />
        </mxCell>
        <mxCell id="gHcnHML56qrDtgY2Ua43-54" value="" style="endArrow=none;html=1;rounded=0;exitX=0.5;exitY=0;exitDx=0;exitDy=0;exitPerimeter=0;entryX=0;entryY=0.5;entryDx=0;entryDy=0;" edge="1" parent="1" source="gHcnHML56qrDtgY2Ua43-28" target="gHcnHML56qrDtgY2Ua43-29">
          <mxGeometry width="50" height="50" relative="1" as="geometry">
            <mxPoint x="290" y="560" as="sourcePoint" />
            <mxPoint x="340" y="510" as="targetPoint" />
            <Array as="points">
              <mxPoint x="160" y="540" />
            </Array>
          </mxGeometry>
        </mxCell>
        <mxCell id="gHcnHML56qrDtgY2Ua43-56" value="&lt;div&gt;8 \(\Omega\)&lt;/div&gt;&lt;div&gt;Load&lt;br&gt;&lt;/div&gt;" style="text;html=1;align=center;verticalAlign=middle;resizable=0;points=[];autosize=1;strokeColor=none;fillColor=none;" vertex="1" parent="1">
          <mxGeometry x="497.5" y="557.5" width="90" height="40" as="geometry" />
        </mxCell>
        <mxCell id="gHcnHML56qrDtgY2Ua43-63" value="" style="rounded=0;fontColor=none;noLabel=1;fillColor=none;" vertex="1" parent="1">
          <mxGeometry x="507.5" y="380" width="190" height="80" as="geometry" />
        </mxCell>
        <mxCell id="gHcnHML56qrDtgY2Ua43-66" value="" style="verticalLabelPosition=middle;shadow=0;dashed=0;align=left;fillColor=strokeColor;verticalAlign=middle;strokeWidth=1;shape=mxgraph.electrical.miscellaneous.monocell_battery;rotation=0;labelPosition=right;textDirection=ltr;" vertex="1" parent="1">
          <mxGeometry x="612.5" y="390" width="100" height="60" as="geometry" />
        </mxCell>
        <mxCell id="gHcnHML56qrDtgY2Ua43-67" value="Hameg&#xa;HM7042" style="text;align=center;verticalAlign=middle;rounded=0;" vertex="1" parent="1">
          <mxGeometry x="566.25" y="390" width="60" height="30" as="geometry" />
        </mxCell>
        <mxCell id="gHcnHML56qrDtgY2Ua43-68" value="" style="verticalLabelPosition=middle;shadow=0;dashed=0;align=left;fillColor=strokeColor;verticalAlign=middle;strokeWidth=1;shape=mxgraph.electrical.miscellaneous.monocell_battery;rotation=0;labelPosition=right;textDirection=ltr;" vertex="1" parent="1">
          <mxGeometry x="480" y="390" width="100" height="60" as="geometry" />
        </mxCell>
        <mxCell id="gHcnHML56qrDtgY2Ua43-69" value="" style="pointerEvents=1;verticalLabelPosition=bottom;shadow=0;dashed=0;align=center;verticalAlign=top;shape=mxgraph.electrical.signal_sources.signal_ground;" vertex="1" parent="1">
          <mxGeometry x="580" y="480" width="32.5" height="20" as="geometry" />
        </mxCell>
        <mxCell id="gHcnHML56qrDtgY2Ua43-70" value="" style="rounded=0;fontColor=none;noLabel=1;fillColor=none;" vertex="1" parent="1">
          <mxGeometry x="111.25" y="420" width="190" height="80" as="geometry" />
        </mxCell>
        <mxCell id="gHcnHML56qrDtgY2Ua43-71" value="" style="endArrow=none;html=1;rounded=0;exitX=0.5;exitY=0;exitDx=0;exitDy=0;exitPerimeter=0;entryX=0.5;entryY=1;entryDx=0;entryDy=0;" edge="1" parent="1" source="gHcnHML56qrDtgY2Ua43-69" target="gHcnHML56qrDtgY2Ua43-67">
          <mxGeometry width="50" height="50" relative="1" as="geometry">
            <mxPoint x="480" y="480" as="sourcePoint" />
            <mxPoint x="580" y="470" as="targetPoint" />
          </mxGeometry>
        </mxCell>
        <mxCell id="gHcnHML56qrDtgY2Ua43-73" value="" style="endArrow=none;html=1;rounded=0;exitX=0;exitY=0.5;exitDx=0;exitDy=0;exitPerimeter=0;" edge="1" parent="1" source="gHcnHML56qrDtgY2Ua43-66" target="gHcnHML56qrDtgY2Ua43-63">
          <mxGeometry width="50" height="50" relative="1" as="geometry">
            <mxPoint x="450" y="500" as="sourcePoint" />
            <mxPoint x="500" y="450" as="targetPoint" />
          </mxGeometry>
        </mxCell>
        <mxCell id="gHcnHML56qrDtgY2Ua43-75" value="" style="endArrow=none;html=1;rounded=0;entryX=0.782;entryY=0.997;entryDx=0;entryDy=0;entryPerimeter=0;exitX=1;exitY=0.5;exitDx=0;exitDy=0;exitPerimeter=0;" edge="1" parent="1" source="gHcnHML56qrDtgY2Ua43-68" target="gHcnHML56qrDtgY2Ua43-67">
          <mxGeometry width="50" height="50" relative="1" as="geometry">
            <mxPoint x="430" y="510" as="sourcePoint" />
            <mxPoint x="550" y="470" as="targetPoint" />
          </mxGeometry>
        </mxCell>
        <mxCell id="gHcnHML56qrDtgY2Ua43-76" value="" style="endArrow=none;html=1;rounded=0;entryX=0;entryY=0.5;entryDx=0;entryDy=0;entryPerimeter=0;" edge="1" parent="1" target="gHcnHML56qrDtgY2Ua43-68">
          <mxGeometry width="50" height="50" relative="1" as="geometry">
            <mxPoint x="420" y="420" as="sourcePoint" />
            <mxPoint x="510" y="370" as="targetPoint" />
          </mxGeometry>
        </mxCell>
        <mxCell id="gHcnHML56qrDtgY2Ua43-79" value="" style="endArrow=none;html=1;rounded=0;exitX=0.593;exitY=-0.003;exitDx=0;exitDy=0;exitPerimeter=0;" edge="1" parent="1" source="gHcnHML56qrDtgY2Ua43-29">
          <mxGeometry width="50" height="50" relative="1" as="geometry">
            <mxPoint x="440" y="510" as="sourcePoint" />
            <mxPoint x="420" y="420" as="targetPoint" />
          </mxGeometry>
        </mxCell>
        <mxCell id="gHcnHML56qrDtgY2Ua43-80" value="&lt;div&gt;-8V&lt;/div&gt;" style="text;whiteSpace=wrap;html=1;" vertex="1" parent="1">
          <mxGeometry x="456" y="400" width="24" height="40" as="geometry" />
        </mxCell>
        <mxCell id="gHcnHML56qrDtgY2Ua43-81" value="" style="endArrow=none;html=1;rounded=0;" edge="1" parent="1">
          <mxGeometry width="50" height="50" relative="1" as="geometry">
            <mxPoint x="720" y="420" as="sourcePoint" />
            <mxPoint x="710" y="360" as="targetPoint" />
            <Array as="points">
              <mxPoint x="720" y="360" />
            </Array>
          </mxGeometry>
        </mxCell>
        <mxCell id="gHcnHML56qrDtgY2Ua43-82" value="" style="endArrow=none;html=1;rounded=0;edgeStyle=orthogonalEdgeStyle;entryX=0.407;entryY=-0.042;entryDx=0;entryDy=0;entryPerimeter=0;" edge="1" parent="1" target="gHcnHML56qrDtgY2Ua43-29">
          <mxGeometry width="50" height="50" relative="1" as="geometry">
            <mxPoint x="710" y="360" as="sourcePoint" />
            <mxPoint x="530" y="360" as="targetPoint" />
          </mxGeometry>
        </mxCell>
        <mxCell id="gHcnHML56qrDtgY2Ua43-84" value="" style="endArrow=none;html=1;rounded=0;exitX=1;exitY=0.5;exitDx=0;exitDy=0;exitPerimeter=0;" edge="1" parent="1" source="gHcnHML56qrDtgY2Ua43-66">
          <mxGeometry width="50" height="50" relative="1" as="geometry">
            <mxPoint x="650" y="410" as="sourcePoint" />
            <mxPoint x="720" y="420" as="targetPoint" />
          </mxGeometry>
        </mxCell>
        <mxCell id="gHcnHML56qrDtgY2Ua43-85" value="&lt;div&gt;+8V&lt;/div&gt;" style="text;whiteSpace=wrap;html=1;" vertex="1" parent="1">
          <mxGeometry x="456" y="340" width="50" height="40" as="geometry" />
        </mxCell>
      </root>
    </mxGraphModel>
  </diagram>
</mxfile>
